<?xml version="1.0" ?><!DOCTYPE svg  PUBLIC '-//W3C//DTD SVG 1.1//EN'  'http://www.w3.org/Graphics/SVG/1.1/DTD/svg11.dtd'><svg enable-background="new 0 0 100 100" id="Layer_1" version="1.1" viewBox="0 0 100 100" xml:space="preserve" xmlns="http://www.w3.org/2000/svg" xmlns:xlink="http://www.w3.org/1999/xlink"><g><path d="M63.998,65.778c0,4.5-3.563,6.834-7.415,7.625c-3.852,0.791-8.667,0.459-13.072,0   c-4.405-0.459-7.415-3.125-7.415-7.625l-1.351,12.206h30.603L63.998,65.778z" fill="#656565"/><path d="M68.453,66.966c2.57-1.152,6.645-3.118,8.81-4.89c3.816-3.122,3.815-9.217,3.815-15.281   c0-2.849-1.037-7.627-7.985-7.627h-5.767v-0.207h-5v35.563H37.796V60.497h-5v6.112c-0.07,3.691-1.601,10.032-1.601,10.032   c-0.44,2.165,0.94,4.356,3.111,4.763c6.247,1.171,19.047,2.858,31.482,0.153c2.159-0.47,3.499-2.747,3.037-4.908l-1.498-7.013   v-1.195L68.453,66.966z M67.327,44.168h5.767c2.455,0,2.985,0.467,2.985,2.798c0,4.509,0.001,9.619-1.981,11.241   c-1.264,1.035-3.707,2.316-5.92,3.371c-0.305-0.197-0.599-0.462-0.836-0.936l-0.014,0.017V44.168z" fill="#656565"/><path d="M35.051,64.043c-2.981,0-5.626-1.199-7.649-3.469c-1.734-1.941-2.877-4.595-3.179-7.298   c-3.042-2.345-4.959-5.879-5.2-9.688c-0.344-5.422-0.139-11.157,6.098-16.622c1.031-5.542,5.649-8.511,9.805-9.451   c4.032-0.903,7.487-0.48,10.856,1.318c1.26-0.579,2.621-0.914,4.008-0.982c2.355-0.115,4.698,0.436,6.602,1.516   c1.851-1.419,4.115-2.243,6.562-2.363c3.338-0.159,6.472,1.218,8.849,3.843c2.473,2.73,3.486,6.211,2.933,10.065   c-0.62,4.33-3.269,8.604-6.589,10.637c-1.342,0.823-2.811,1.28-4.365,1.356c-1.845,0.09-3.704-0.369-5.461-1.3   c-2.392,1.671-5.4,2.431-7.607,2.575c-1.269,2.054-3.037,3.718-5.215,4.914c1.588,9.526-2.888,12.867-5.833,14.022   c-1.378,0.541-2.748,0.848-4.07,0.913C35.411,64.038,35.23,64.043,35.051,64.043z M38.807,22.061c-0.878,0-1.789,0.108-2.784,0.332   c-1.681,0.38-5.648,1.739-6.075,6.114l-0.102,1.041l-0.813,0.658c-5.164,4.183-5.338,8.054-5.021,13.065   c0.197,3.112,2.173,5.412,3.956,6.526l1.167,0.729l0.008,1.376c0.009,1.517,0.536,3.716,1.987,5.342   c1.064,1.193,2.383,1.798,3.92,1.798l0.297-0.008c0.78-0.038,1.618-0.231,2.49-0.573c2.91-1.142,3.713-4.584,2.387-10.23   l-0.499-2.121l2.034-0.783c2.391-0.921,4.189-2.548,5.2-4.705l0.732-1.561l1.719,0.129c0.15,0.012,0.304,0.017,0.463,0.017   l0.381-0.01c1.963-0.096,4.664-0.951,6.039-2.402l1.537-1.622l1.783,1.347c0.691,0.521,2.092,1.396,3.708,1.396l0.213-0.005   c0.715-0.035,1.369-0.24,1.999-0.626c2.056-1.259,3.843-4.236,4.251-7.083c0.34-2.367-0.229-4.386-1.69-5.999   c-1.31-1.447-2.908-2.212-4.619-2.212l-0.278,0.007c-1.875,0.092-3.549,0.884-4.711,2.229l-1.702,1.97l-1.9-1.781   c-1.039-0.975-2.757-1.579-4.483-1.579l-0.368,0.009c-1.054,0.052-2.042,0.373-2.936,0.956l-1.362,0.887l-1.363-0.884   C42.54,22.614,40.771,22.061,38.807,22.061z" fill="#656565"/><rect fill="#656565" height="19.166" width="3" x="54.841" y="47.555"/><rect fill="#656565" height="19.166" width="3" x="48.316" y="47.555"/><rect fill="#656565" height="19.166" width="3" x="41.791" y="47.555"/></g></svg>