<?xml version="1.0" ?><svg style="enable-background:new 0 0 48 48;" version="1.1" viewBox="0 0 48 48" xml:space="preserve" xmlns="http://www.w3.org/2000/svg" xmlns:xlink="http://www.w3.org/1999/xlink"><style type="text/css">
	.st0{fill:none;stroke:#505050;stroke-width:2;stroke-miterlimit:10;}
	.st1{fill:none;stroke:#505050;stroke-width:2;stroke-linecap:round;stroke-linejoin:round;stroke-miterlimit:10;}
	.st2{fill:none;stroke:#505050;stroke-width:2;stroke-linejoin:round;stroke-miterlimit:10;}
	.st3{fill:none;stroke:#505050;stroke-width:2;stroke-linecap:round;stroke-miterlimit:10;}
</style><g id="_x34_8x48"/><g id="icons"><g><path class="st0" d="M38,39L38,39c-0.1-1.2-1.1-2-2.3-1.8c-1.9,0.3-4.6,0.7-5.4,0.5c-0.2,0.8-1.9,2.9-3.1,4.4    c-0.8,0.9-0.5,2.3,0.4,2.9l0,0L38,39z"/><line class="st0" x1="25.3" x2="30.3" y1="29" y2="37.7"/><path class="st0" d="M18.1,2c0,0-3.6,1-6.8,2.8C8.2,6.6,5.6,9.2,5.6,9.2c1.4,4.3,3,11,5.3,15c1.1,1.9,2.9,3.9,6.3,3.9    c3.3,0,6-2,8.6,1.8c-2-4.2,1.2-5.5,2.8-8.4c1.7-2.9,0.8-5.5-0.2-7.4C26.1,10.1,21.1,5.4,18.1,2z"/><path class="st0" d="M28,15H11"/></g></g></svg>